# xmcd
#
# Track frame offsets: 
#        150
#        14765
#        30027
#        42142
#        56995
#        71117
#        88742
#        103085
#        120975
#        137135
#        149657
#        165347
#        180077
#        196270
#        210720
#        223762
#        234655
#
# Disc length: 3235 seconds
#
# Revision: 5
# Processed by: cddbd v1.4PL0 Copyright (c) Steve Scherf et al.
# Submitted via: ExactAudioCopy v0.95a3
#
DISCID=f30ca111
DTITLE=Various Artist - Hell-Bent: Insurgent Country Volume 2
DYEAR=1995
DGENRE=Rock
TTITLE0=Get it While It's Hot - Earl C. Whitehead and The Grievous Angel
TTITLE0=s 
TTITLE1=Bad Times Are Coming Round Again - The Waco Brothers
TTITLE2=She Took A Lot Of Pills And Died - Robbie Fulks
TTITLE3=Little White Trash Boy - The Starkweathers
TTITLE4=Get Down - Bottle Rockets
TTITLE5=Roulette Wheel - Moonshine Willy
TTITLE6=One I Love - The Volebeats
TTITLE7=22 - Richard Buckner
TTITLE8=Espoontoon - Eleanor Roosevelt
TTITLE9=Tennessee Hi-Way Blues - Gwil Owen
TTITLE10=Por Favor - Old 97's
TTITLE11=Walking On My Grave - The Cartwrights
TTITLE12=Yellow Birds - Tarnation
TTITLE13=World Renowned - The Riptones
TTITLE14=Honky-Tonk Has-Been - The Cornell Hurd Band
TTITLE15=Don't Die While I'm Alive - The Inbreds
TTITLE16=Mud Flap Boogie - World Famous Blue Jays
EXTD=
EXTT0=
EXTT1=
EXTT2=
EXTT3=
EXTT4=
EXTT5=
EXTT6=
EXTT7=
EXTT8=
EXTT9=
EXTT10=
EXTT11=
EXTT12=
EXTT13=
EXTT14=
EXTT15=
EXTT16=
PLAYORDER=
